<?xml version="1.0" encoding="iso-8859-1"?>
<!-- Generator: Adobe Illustrator 17.0.0, SVG Export Plug-In . SVG Version: 6.00 Build 0)  -->
<!DOCTYPE svg PUBLIC "-//W3C//DTD SVG 1.1//EN" "http://www.w3.org/Graphics/SVG/1.1/DTD/svg11.dtd">
<svg version="1.1" xmlns="http://www.w3.org/2000/svg" xmlns:xlink="http://www.w3.org/1999/xlink" x="0px" y="0px" width="130px"
	 height="90px" viewBox="0 0 130 90" style="enable-background:new 0 0 130 90;" xml:space="preserve">
<g id="Fans_x5F_Horz_x5F_Right_x5F_On">
	<g>
		<g>
			<g>
				<polygon style="fill:#E7E9EA;" points="0,70.04 130,70.061 130,20.061 0,20.04 				"/>
				<g>
					<polyline style="fill:#E7E9EA;" points="130,20 0,20 0,0 130,0 					"/>
					<polygon style="fill:#6A7276;" points="130,21.629 0,21.623 0,20 130,20.062 					"/>
					<g>
						<polyline style="fill:#DDDFE1;" points="130,88.494 0,88.494 0,68.494 130,68.494 						"/>
						<rect y="88.433" style="fill:#6A7276;" width="130" height="1.567"/>
					</g>
				</g>
			</g>
			<line style="fill:none;stroke:#ABAAA9;stroke-width:0.6;stroke-miterlimit:10;" x1="0" y1="68.433" x2="130" y2="68.433"/>
		</g>
		<g>
			<path style="fill:#B4B5B0;" d="M98.517,21.911l1.059,0.721l0,33.916h-1.674l-0.741-1.024h-3.293
				c0,18.105-14.677,32.781-32.781,32.781c-6.632,0-12.858-1.958-18.05-5.338c-2.196-1.429-21.907-14.856-21.907-14.856
				c-5.291-5.822-8.516-13.555-8.516-22.041c0-5.99,1.595-11.608,4.383-16.452c1.651-2.868,3.721-5.465,6.125-7.707L98.517,21.911z"
				/>
			<path style="fill:#CDCEC6;" d="M93.879,55.354c0,18.072-14.65,32.722-32.722,32.722s-32.722-14.65-32.722-32.722
				s14.65-32.722,32.722-32.722h38.42v33.916h-1.449l-0.677-1.194H93.879z"/>
			<circle style="fill:#B4B5B0;" cx="61.156" cy="55.354" r="27.35"/>
			<circle style="fill:#848484;" cx="61.156" cy="55.354" r="22.303"/>
			<path style="fill:none;stroke:#E8E8E2;stroke-width:0.8;stroke-miterlimit:10;" d="M93.879,55.354
				c0,18.072-14.65,32.722-32.722,32.722s-32.722-14.65-32.722-32.722s14.65-32.722,32.722-32.722h38.42v34.163h-1.385l-0.902-1.441
				H93.879z"/>
			<polyline style="fill:none;stroke:#526C7C;stroke-width:0.3;stroke-miterlimit:10;" points="97.258,22.7 97.645,22.961 
				97.645,54.765 			"/>
			<circle style="fill:none;stroke:#526C7C;stroke-width:0.1;stroke-miterlimit:10;" cx="61.156" cy="55.354" r="27.35"/>
			<g>
				<path style="fill:none;stroke:#E8E8E2;stroke-width:0.2;stroke-miterlimit:10;" d="M27.235,71.747
					c-7.053-6.002-11.527-14.944-11.527-24.931c0-9.975,4.463-18.908,11.502-24.91"/>
				<path style="fill:none;stroke:#E8E8E2;stroke-width:0.2;stroke-miterlimit:10;" d="M35.806,78.742
					c-6.732-5.993-10.971-14.725-10.971-24.447c0-16.005,11.49-29.326,26.672-32.164"/>
			</g>
			<g>
				<path style="fill:none;stroke:#B5B5B6;stroke-width:0.2;stroke-miterlimit:10;" d="M27.054,71.747
					c-7.053-6.002-11.527-14.944-11.527-24.931c0-9.975,4.463-18.908,11.502-24.91"/>
				<path style="fill:none;stroke:#B5B5B6;stroke-width:0.2;stroke-miterlimit:10;" d="M35.625,78.742
					c-6.732-5.993-10.971-14.725-10.971-24.447c0-16.005,11.49-29.326,26.672-32.164"/>
			</g>
			<path style="fill:none;stroke:#4F4C4B;stroke-width:1.6;stroke-miterlimit:10;" d="M98.517,21.911l1.059,0.721l-0.086,34.163
				h-1.385l-0.946-1.271h-3.292c0,18.105-14.677,32.781-32.781,32.781c-6.632,0-12.858-1.958-18.05-5.338
				c-2.196-1.429-21.907-14.856-21.907-14.856c-5.291-5.822-8.516-13.555-8.516-22.041c0-5.99,1.595-11.608,4.383-16.452
				c1.651-2.868,3.721-5.465,6.125-7.707"/>
			<g>
				<g>
					<g>
						<path style="fill:#A9A8A8;" d="M60.406,77.671c-0.002-3.475,0.856-7.044,2.257-9.92l0.746,0.36
							c-1.291,3.012-1.315,6.219-1.313,9.53L60.406,77.671z"/>
					
					
						<path style="fill:#A9A8A8;" d="M71.666,75.124c-1.74-3.008-2.782-6.528-3.007-9.719l0.826-0.061
							c0.388,3.254,1.971,6.044,3.629,8.909L71.666,75.124z"/>
					
					
						<path style="fill:#A9A8A8;" d="M80.139,67.295c-3.01-1.736-5.671-4.264-7.461-6.916l0.685-0.466
							c1.962,2.624,4.728,4.25,7.595,5.904L80.139,67.295z"/>
					
				
				
					
						<path style="fill:#A9A8A8;" d="M83.567,56.266c-3.475,0.002-7.044-0.855-9.92-2.256l0.36-0.746
							c3.012,1.29,6.219,1.315,9.53,1.312L83.567,56.266z"/>
					
					
						<path style="fill:#A9A8A8;" d="M81.019,45.006c-3.008,1.74-6.527,2.782-9.719,3.008l-0.061-0.826
							c3.254-0.389,6.043-1.972,8.909-3.63L81.019,45.006z"/>
					
					
						<path style="fill:#A9A8A8;" d="M73.189,36.533c-1.736,3.01-4.263,5.672-6.915,7.462l-0.466-0.685
							c2.624-1.963,4.249-4.728,5.903-7.596L73.189,36.533z"/>
					
				
				
					
						<path style="fill:#A9A8A8;" d="M62.164,33.067c0.002,3.475-0.855,7.044-2.256,9.92l-0.746-0.36
							c1.291-3.012,1.315-6.219,1.313-9.53L62.164,33.067z"/>
					
					
						<path style="fill:#A9A8A8;" d="M50.903,35.613c1.74,3.008,2.782,6.528,3.007,9.719l-0.826,0.061
							c-0.389-3.254-1.971-6.043-3.629-8.909L50.903,35.613z"/>
					
					
						<path style="fill:#A9A8A8;" d="M42.43,43.443c3.01,1.736,5.672,4.264,7.461,6.916l-0.685,0.466
							c-1.962-2.624-4.728-4.25-7.596-5.904L42.43,43.443z"/>
					
				
				
					
						<path style="fill:#A9A8A8;" d="M39.004,54.498c3.475,0,7.043,0.859,9.919,2.262l-0.361,0.746
							c-3.011-1.292-6.219-1.319-9.529-1.318L39.004,54.498z"/>
					
					
						<path style="fill:#A9A8A8;" d="M41.544,65.76c3.009-1.738,6.529-2.778,9.721-3.002l0.061,0.827
							c-3.254,0.387-6.045,1.968-8.911,3.624L41.544,65.76z"/>
					
					
						<path style="fill:#A9A8A8;" d="M49.369,74.237c1.738-3.009,4.267-5.669,6.92-7.458l0.466,0.686
							c-2.625,1.961-4.252,4.725-5.908,7.592L49.369,74.237z"/>

						<animateTransform  fill="remove" 
						  type="rotate" 
						  additive="replace" 
						  accumulate="none" 
						  restart="always" 
						  attributeName="transform" 
						  from="0 61 55.25" 
						  to="360 61 55.25" 
						  dur="3s" calcMode="linear" 
						  atrributeType="xml" 
						  repeatCount="indefinite">

							</animateTransform>



					</g>
				</g>
			</g>
			<g>
				<path style="fill:none;stroke:#4F4C4B;stroke-width:0.25;stroke-miterlimit:10;" d="M59.725,77.633
					c0.104-3.473,1.07-7.014,2.558-9.846"/>
				<path style="fill:none;stroke:#4F4C4B;stroke-width:0.25;stroke-miterlimit:10;" d="M71.058,75.432
					c-1.647-3.06-2.581-6.61-2.709-9.806"/>
				<path style="fill:none;stroke:#4F4C4B;stroke-width:0.25;stroke-miterlimit:10;" d="M79.766,67.865
					c-2.956-1.827-5.539-4.435-7.247-7.14"/>
				<path style="fill:none;stroke:#4F4C4B;stroke-width:0.25;stroke-miterlimit:10;" d="M83.529,56.946
					c-3.473-0.104-7.015-1.07-9.847-2.557"/>
				<path style="fill:none;stroke:#4F4C4B;stroke-width:0.25;stroke-miterlimit:10;" d="M81.326,45.613
					c-3.06,1.647-6.609,2.582-9.806,2.71"/>
				<path style="fill:none;stroke:#4F4C4B;stroke-width:0.25;stroke-miterlimit:10;" d="M73.759,36.906
					c-1.827,2.956-4.435,5.539-7.14,7.247"/>
				<path style="fill:none;stroke:#4F4C4B;stroke-width:0.25;stroke-miterlimit:10;" d="M62.844,33.104
					c-0.104,3.473-1.07,7.014-2.558,9.847"/>
				<path style="fill:none;stroke:#4F4C4B;stroke-width:0.25;stroke-miterlimit:10;" d="M51.511,35.306
					c1.647,3.06,2.581,6.609,2.709,9.806"/>
				<path style="fill:none;stroke:#4F4C4B;stroke-width:0.25;stroke-miterlimit:10;" d="M42.803,42.872
					c2.956,1.827,5.539,4.435,7.247,7.14"/>
				<path style="fill:none;stroke:#4F4C4B;stroke-width:0.25;stroke-miterlimit:10;" d="M39.041,53.818
					c3.473,0.106,7.014,1.074,9.845,2.564"/>
				<path style="fill:none;stroke:#4F4C4B;stroke-width:0.25;stroke-miterlimit:10;" d="M41.236,65.152
					c3.061-1.645,6.611-2.577,9.808-2.703"/>
				<path style="fill:none;stroke:#4F4C4B;stroke-width:0.25;stroke-miterlimit:10;" d="M48.798,73.864
					c1.829-2.955,4.438-5.536,7.144-7.243"/>


					<animateTransform  fill="remove" 
						  type="rotate" 
						  additive="replace" 
						  accumulate="none" 
						  restart="always" 
						  attributeName="transform" 
						  from="0 61 55.25" 
						  to="360 61 55.25" 
						  dur="3s" calcMode="linear" 
						  atrributeType="xml" 
						  repeatCount="indefinite">

					</animateTransform>


			</g>
			<circle style="fill:none;stroke:#4F4C4B;stroke-width:0.75;stroke-miterlimit:10;" cx="61.156" cy="55.354" r="22.303"/>
			<rect x="98.615" y="22.974" style="fill:#CCCCCC;" width="0.657" height="33.046"/>
			
				<line style="fill:none;stroke:#E5E5DF;stroke-width:0.35;stroke-miterlimit:10;" x1="98.647" y1="22.974" x2="98.582" y2="56.02"/>
			<circle style="fill:none;stroke:#757576;stroke-width:0.15;stroke-miterlimit:10;" cx="61.004" cy="55.354" r="6.669"/>
			<path style="fill:none;stroke:#B5B5B6;stroke-width:0.2;stroke-miterlimit:10;" d="M97.741,54.47h-5.195
				c0,18.405-14.102,32.608-31.498,32.608S29.551,72.875,29.551,55.354S43.653,23.63,61.049,23.63h36.596"/>
			<circle style="fill:#757576;" cx="61.004" cy="55.354" r="4.873"/>
		</g>
	</g>
	
</g>
<g id="Layer_1">
</g>
</svg>
