<svg id="图层_1" data-name="图层 1" xmlns="http://www.w3.org/2000/svg" viewBox="0 0 80 53.6"><defs><style>.cls-1{fill:#a3a19f;}.cls-2{fill:#cdcec6;}.cls-3{fill:#6a7276;}.cls-4{fill:#b4b5b0;}.cls-5{fill:#4f4c4b;}</style></defs><title>测</title><path class="cls-1" d="M80.08,44.23c0,1.29-1.8,2.33-4,2.33s-4-1-4-2.33V0h8V44.23Z"/><path class="cls-2" d="M74.08,0h4V46.25a6.48,6.48,0,0,1-4,0Z"/><path class="cls-3" d="M80.09,40.15v5.21a2.84,2.84,0,0,1-2.84,2.84H3.89a3,3,0,0,1-3-3V40.15Z"/><path class="cls-2" d="M76,46.16H4.57a1.65,1.65,0,0,1-1.64-1.65V42.19H78v2A2,2,0,0,1,76,46.16Z"/><polygon class="cls-1" points="47.69 43.6 33.61 53.6 26.56 43.6 26.56 30.35 47.69 30.35 54.74 40.35 47.69 43.6"/><polygon class="cls-4" points="33.61 40.35 26.56 30.35 47.69 30.35 54.74 40.35 33.61 40.35"/><rect class="cls-5" x="33.61" y="40.35" width="21.13" height="13.25"/><path class="cls-3" d="M30.63,40.15V48.2H3.89a3,3,0,0,1-3-3V40.15Z"/><path class="cls-2" d="M4.57,46.16a1.65,1.65,0,0,1-1.64-1.65V42.19h27.7v4Z"/><path class="cls-3" d="M8.94,45.88c0,1.29-1.81,2.33-4,2.33s-4-1-4-2.33V0h8v45.9Z"/><path class="cls-2" d="M2.93-.93h4V47.9a7.44,7.44,0,0,1-2,.31,7.32,7.32,0,0,1-2-.31Z"/></svg>