<svg id="图层_1" data-name="图层 1" xmlns="http://www.w3.org/2000/svg" viewBox="0 0 111.1 68.11"><defs><style>.cls-1{fill:#a3a19f;}.cls-2{fill:#cdcec6;}.cls-3{fill:#6a7276;}.cls-4{fill:#b4b5b0;}.cls-5{fill:#4f4c4b;}</style></defs><title>测</title><path class="cls-1" d="M111.1,66c0,1.29-1.81,2.33-4,2.33s-4-1-4-2.33V16h8V66Z"/><path class="cls-2" d="M105.09,16h4V68a7.44,7.44,0,0,1-2,.31,7.32,7.32,0,0,1-2-.31Z"/><path class="cls-3" d="M0,17.85v-5a3,3,0,0,1,3-3H108.26a2.84,2.84,0,0,1,2.84,2.84v5.21Z"/><path class="cls-2" d="M109.06,13.86v2H2V13.49a1.64,1.64,0,0,1,1.65-1.64H107A2,2,0,0,1,109.06,13.86Z"/><polygon class="cls-1" points="64 13.25 49.91 23.25 42.87 13.25 42.87 0 64 0 71.04 10 64 13.25"/><polygon class="cls-4" points="49.91 10 42.87 0 64 0 71.04 10 49.91 10"/><rect class="cls-5" x="49.91" y="10" width="21.13" height="13.25"/><path class="cls-3" d="M0,17.85v-5a3,3,0,0,1,3-3H46.93v8.05Z"/><path class="cls-2" d="M46.93,11.85v4H2V13.49a1.64,1.64,0,0,1,1.65-1.64Z"/><path class="cls-3" d="M8.05,65.78c0,1.29-1.8,2.33-4,2.33s-4-1-4-2.33V16H8.05V65.78Z"/><path class="cls-2" d="M2,15H6V67.8a7.32,7.32,0,0,1-2,.31,7.44,7.44,0,0,1-2-.31Z"/></svg>