<svg id="图层_1" data-name="图层 1" xmlns="http://www.w3.org/2000/svg" viewBox="0 0 80 61.57"><defs><style>.cls-1{fill:#a3a19f;}.cls-2{fill:#cdcec6;}.cls-3{fill:#6a7276;}.cls-4{fill:#b4b5b0;}.cls-5{fill:#4f4c4b;}</style></defs><title>测</title><path class="cls-1" d="M79.6,59.1c0,1.29-1.81,2.33-4,2.33s-4-1-4-2.33V16.8h8V59.1Z"/><path class="cls-2" d="M73.59,16.81h4V61.12a7.44,7.44,0,0,1-2,.31,7.32,7.32,0,0,1-2-.31Z"/><path class="cls-3" d="M.4,18.69V13.64a3,3,0,0,1,3-3H76.76a2.84,2.84,0,0,1,2.84,2.84v5.21Z"/><path class="cls-2" d="M77.56,14.7v1.95H2.44V14.33a1.65,1.65,0,0,1,1.65-1.65H75.54A2,2,0,0,1,77.56,14.7Z"/><polygon class="cls-1" points="47.21 14.09 33.12 24.09 26.08 14.09 26.08 0.84 47.21 0.84 54.25 10.84 47.21 14.09"/><polygon class="cls-4" points="33.12 10.84 26.08 0.84 47.21 0.84 54.25 10.84 33.12 10.84"/><rect class="cls-5" x="33.12" y="10.84" width="21.13" height="13.25"/><path class="cls-3" d="M.4,18.69V13.64a3,3,0,0,1,3-3H30.14v8.05Z"/><path class="cls-2" d="M30.14,12.68v4H2.44V14.33a1.65,1.65,0,0,1,1.65-1.65Z"/><path class="cls-3" d="M8.45,59.24c0,1.29-1.8,2.33-4,2.33s-4-1-4-2.33V16.79h8V59.24Z"/><path class="cls-2" d="M2.44,15.88h4V61.26a7.44,7.44,0,0,1-2,.31,7.54,7.54,0,0,1-2-.3Z"/></svg>